# xmcd
#
# Track frame offsets: 
#        150
#        21115
#        40272
#        62505
#        88758
#        111245
#        130614
#        148201
#        169154
#        192549
#        212137
#        235148
#        252035
#
# Disc length: 3750 seconds
#
# Revision: 0
# Processed by: cddbd v1.5.2PL0 Copyright (c) Steve Scherf et al.
# Submitted via: ExactAudioCopyFreeDBPlugin 1.0
#
DISCID=b80ea40d
DTITLE=原由実 - Place of my life
DYEAR=2013
DGENRE=JPop
TTITLE0=Place of my life
TTITLE1=Blue Moon
TTITLE2=風のオーケストラ
TTITLE3=蛍火
TTITLE4=HANABI feat.今井麻美
TTITLE5=Spiral Moment
TTITLE6=天ノ紅
TTITLE7=Lights in the sky
TTITLE8=intention
TTITLE9=splash mind
TTITLE10=Snow Drops
TTITLE11=あふれる想い
TTITLE12=HANABI -solo ver.-
EXTD=
EXTT0=
EXTT1=
EXTT2=
EXTT3=
EXTT4=
EXTT5=
EXTT6=
EXTT7=
EXTT8=
EXTT9=
EXTT10=
EXTT11=
EXTT12=
PLAYORDER=
